<?xml version="1.0" encoding="UTF-8" standalone="no"?>
<!DOCTYPE svg PUBLIC "-//W3C//DTD SVG 1.1//EN" "http://www.w3.org/Graphics/SVG/1.1/DTD/svg11.dtd">
<svg width="100%" height="100%" viewBox="0 0 1890 360" version="1.1" xmlns="http://www.w3.org/2000/svg" xmlns:xlink="http://www.w3.org/1999/xlink" xml:space="preserve" xmlns:serif="http://www.serif.com/" style="fill-rule:evenodd;clip-rule:evenodd;stroke-linejoin:round;stroke-miterlimit:2;">
    <g transform="matrix(1.116771,0,0,1.116771,-329.755274,-295.136455)">
        <g transform="matrix(5.120322,0,0,5.120322,-1419.144043,-5881.76407)">
            <path d="M419.44,1234.886L419.44,1247.094L411.231,1247.094L411.231,1216.804L419.44,1216.804L419.44,1228.782L431.468,1228.782L431.468,1216.804L439.678,1216.804L439.678,1247.094L431.468,1247.094L431.468,1234.886L419.44,1234.886Z" style="fill:white;"/>
            <path d="M458.865,1216.345C462.047,1216.345 464.792,1216.964 467.099,1218.203C469.406,1219.442 471.18,1221.225 472.421,1223.55C473.662,1225.875 474.282,1228.675 474.282,1231.949C474.282,1235.222 473.662,1238.022 472.421,1240.347C471.18,1242.673 469.406,1244.455 467.099,1245.694C464.792,1246.933 462.047,1247.553 458.865,1247.553C455.683,1247.553 452.931,1246.933 450.608,1245.694C448.285,1244.455 446.503,1242.673 445.262,1240.347C444.021,1238.022 443.401,1235.222 443.401,1231.949C443.401,1228.675 444.021,1225.875 445.262,1223.55C446.503,1221.225 448.285,1219.442 450.608,1218.203C452.931,1216.964 455.683,1216.345 458.865,1216.345ZM458.865,1222.54C457.338,1222.54 456.049,1222.892 454.999,1223.596C453.949,1224.3 453.154,1225.348 452.613,1226.74C452.072,1228.132 451.801,1229.868 451.801,1231.949C451.801,1233.999 452.072,1235.727 452.613,1237.135C453.154,1238.542 453.949,1239.598 454.999,1240.301C456.049,1241.005 457.338,1241.357 458.865,1241.357C460.393,1241.357 461.673,1241.005 462.708,1240.301C463.742,1239.598 464.529,1238.542 465.07,1237.135C465.611,1235.727 465.882,1233.999 465.882,1231.949C465.882,1229.868 465.611,1228.132 465.07,1226.74C464.529,1225.348 463.742,1224.3 462.708,1223.596C461.673,1222.892 460.393,1222.54 458.865,1222.54Z" style="fill:white;fill-rule:nonzero;"/>
            <path d="M503.256,1216.804L503.256,1222.907L492.994,1222.907L492.994,1247.094L484.785,1247.094L484.785,1222.907L474.475,1222.907L474.475,1216.804L503.256,1216.804Z" style="fill:white;fill-rule:nonzero;"/>
            <path d="M506.024,1247.094L506.024,1216.804L530.558,1216.804L530.558,1222.907L514.234,1222.907L514.234,1229.057L527.217,1229.057L527.217,1234.794L514.234,1234.794L514.234,1240.99L531.178,1240.99L531.178,1247.094L506.024,1247.094Z" style="fill:white;fill-rule:nonzero;"/>
            <path d="M562.632,1216.804L562.632,1247.094L553.516,1247.094L543.731,1230.71L541.345,1226.212L541.297,1226.212L541.488,1231.811L541.488,1247.094L534.233,1247.094L534.233,1216.804L543.349,1216.804L553.134,1233.188L555.521,1237.685L555.568,1237.685L555.377,1232.086L555.377,1216.804L562.632,1216.804Z" style="fill:white;fill-rule:nonzero;"/>
            <path d="M581.056,1216.804C585.988,1216.804 589.767,1218.119 592.392,1220.75C595.017,1223.382 596.33,1227.114 596.33,1231.949C596.33,1236.783 595.017,1240.516 592.392,1243.147C589.767,1245.778 585.988,1247.094 581.056,1247.094L567.692,1247.094L567.692,1216.804L581.056,1216.804ZM580.245,1241.128C582.918,1241.128 584.867,1240.355 586.092,1238.81C587.317,1237.265 587.929,1234.978 587.929,1231.949C587.929,1228.92 587.317,1226.633 586.092,1225.087C584.867,1223.542 582.918,1222.77 580.245,1222.77L575.901,1222.77L575.901,1241.128L580.245,1241.128Z" style="fill:white;fill-rule:nonzero;"/>
            <path d="M602.204,1239.2C603.7,1239.2 604.869,1239.567 605.713,1240.301C606.556,1241.036 606.977,1242.061 606.977,1243.376C606.977,1244.661 606.556,1245.671 605.713,1246.405C604.869,1247.14 603.7,1247.507 602.204,1247.507C600.741,1247.507 599.579,1247.14 598.72,1246.405C597.861,1245.671 597.431,1244.661 597.431,1243.376C597.431,1242.061 597.861,1241.036 598.72,1240.301C599.579,1239.567 600.741,1239.2 602.204,1239.2Z" style="fill:white;fill-rule:nonzero;"/>
            <path d="M637.337,1238.42C636.733,1240.531 635.762,1242.267 634.426,1243.629C633.089,1244.99 631.498,1245.985 629.653,1246.612C627.807,1247.239 625.771,1247.553 623.543,1247.553C620.361,1247.553 617.609,1246.933 615.286,1245.694C612.963,1244.455 611.181,1242.673 609.94,1240.347C608.699,1238.022 608.079,1235.222 608.079,1231.949C608.079,1228.675 608.699,1225.875 609.94,1223.55C611.181,1221.225 612.963,1219.442 615.286,1218.203C617.609,1216.964 620.345,1216.345 623.496,1216.345C625.691,1216.345 627.712,1216.643 629.557,1217.24C631.403,1217.836 632.962,1218.746 634.235,1219.97C635.508,1221.194 636.415,1222.77 636.956,1224.697L629.748,1227.497C629.303,1225.6 628.579,1224.3 627.577,1223.596C626.574,1222.892 625.309,1222.54 623.782,1222.54C622.286,1222.54 620.99,1222.892 619.892,1223.596C618.794,1224.3 617.951,1225.348 617.362,1226.74C616.774,1228.132 616.479,1229.868 616.479,1231.949C616.479,1233.999 616.75,1235.727 617.291,1237.135C617.832,1238.542 618.651,1239.598 619.749,1240.301C620.847,1241.005 622.207,1241.357 623.83,1241.357C625.357,1241.357 626.654,1240.952 627.72,1240.141C628.786,1239.33 629.51,1238.083 629.891,1236.4L637.337,1238.42Z" style="fill:white;fill-rule:nonzero;"/>
            <path d="M647.235,1241.128L665.307,1241.128L665.307,1247.094L638.292,1247.094L638.292,1241.403L655.875,1222.77L638.626,1222.77L638.626,1216.804L664.734,1216.804L664.734,1222.494L647.235,1241.128Z" style="fill:white;"/>
        </g>
        <g transform="matrix(1.850262,0,0,1.850262,-1009.385136,-1769.708876)">
            <path d="M818.684,1116.05L857.37,1138.385C859.473,1139.599 860.769,1141.843 860.769,1144.272L860.769,1225.407C860.769,1228.379 859.183,1231.125 856.61,1232.611L788.188,1272.114C784.944,1273.987 780.947,1273.987 777.703,1272.114L708.705,1232.278C706.488,1230.998 705.122,1228.633 705.122,1226.073L705.122,1143.998C705.122,1141.739 706.328,1139.651 708.284,1138.522L746.127,1116.674L744.721,1118.382L744.986,1121.094L749.228,1124.581L749.059,1124.598L744.721,1129.874L744.986,1132.585L749.228,1136.073L749.059,1136.089L744.721,1141.365L744.986,1144.077L749.228,1147.564L749.059,1147.58L744.721,1152.856L744.986,1155.568L750.262,1159.906L750.582,1159.874L750.582,1173.052L740.622,1173.064L730.398,1176.265L730.398,1204.703L772.66,1240.408L793.382,1240.408L835.493,1204.703L835.493,1176.265L825.31,1172.969L816.902,1172.979L816.902,1152.699L816.896,1152.699L820.603,1148.19L820.339,1145.478L816.097,1141.991L816.266,1141.975L820.603,1136.699L820.339,1133.987L816.097,1130.5L816.266,1130.483L820.603,1125.207L820.339,1122.496L816.097,1119.008L816.266,1118.992L818.684,1116.05Z" style="fill:rgb(255,0,0);"/>
        </g>
    </g>
</svg>
